<?xml version="1.0" encoding="UTF-8" standalone="no"?>
<svg
   xmlns:dc="http://purl.org/dc/elements/1.1/"
   xmlns:cc="http://creativecommons.org/ns#"
   xmlns:rdf="http://www.w3.org/1999/02/22-rdf-syntax-ns#"
   xmlns:svg="http://www.w3.org/2000/svg"
   xmlns="http://www.w3.org/2000/svg"
   xmlns:sodipodi="http://sodipodi.sourceforge.net/DTD/sodipodi-0.dtd"
   xmlns:inkscape="http://www.inkscape.org/namespaces/inkscape"
   width="2048.1333"
   height="1664"
   viewBox="0 0 2048.1333 1664"
   id="svg2"
   version="1.1"
   inkscape:version="0.91 r13725"
   sodipodi:docname="diamond.svg">
  <metadata
     id="metadata10">
    <rdf:RDF>
      <cc:Work
         rdf:about="">
        <dc:format>image/svg+xml</dc:format>
        <dc:type
           rdf:resource="http://purl.org/dc/dcmitype/StillImage" />
        <dc:title></dc:title>
      </cc:Work>
    </rdf:RDF>
  </metadata>
  <defs
     id="defs8" />
  <sodipodi:namedview
     pagecolor="#ffffff"
     bordercolor="#666666"
     borderopacity="1"
     objecttolerance="10"
     gridtolerance="10"
     guidetolerance="10"
     inkscape:pageopacity="0"
     inkscape:pageshadow="2"
     inkscape:window-width="1365"
     inkscape:window-height="753"
     id="namedview6"
     showgrid="false"
     fit-margin-top="0"
     fit-margin-left="0"
     fit-margin-right="0"
     fit-margin-bottom="0"
     inkscape:zoom="0.13169643"
     inkscape:cx="1024.0667"
     inkscape:cy="896"
     inkscape:window-x="0"
     inkscape:window-y="13"
     inkscape:window-maximized="0"
     inkscape:current-layer="svg2" />
  <path
     d="m 212.06667,640 623,665 -300,-665 -323,0 z m 812.00003,772 349,-772 -698.00003,0 z m -486.00003,-900 204,-384 -262,0 -288,384 346,0 z m 675.00003,793 623,-665 -323,0 z m -530.00003,-793 682.00003,0 -204,-384 -274.00003,0 z m 827.00003,0 346,0 -288,-384 -262,0 z m 141,-486 384,512 q 14,18 13,41.5 -1,23.5 -17,40.5 l -960,1024 q -18,20 -47,20 -29.00003,0 -47.00003,-20 L 17.066667,620 Q 1.0666667,603 0.06666667,579.5 q -1,-23.5 13.00000033,-41.5 L 397.06667,26 q 18,-26 51,-26 L 1600.0667,0 q 33,0 51,26 z"
     id="path4"
     style="fill:#242943;fill-opacity:1"
     inkscape:connector-curvature="0" />
</svg>
