<svg xmlns="http://www.w3.org/2000/svg" height="1174.8" viewBox="0 0 1054.8182 1174.7931" width="1054.8"><path fill="#242943" d="m768.32 1174.8c-8.3333-8-12.5-18-12.5-30v-211c0-64.667-17.333-112-52-142 38-4 72.167-10 102.5-18s61.667-21 94-39 59.333-40.167 81-66.5 39.333-61.333 53-105 20.5-93.833 20.5-150.5c0-80.667-26.333-149.33-79-206 24.667-60.667 22-128.67-8-204-18.667-6-45.667-2.3333-81 11s-66 28-92 44l-38 24c-62-17.333-126-26-192-26s-130 8.6667-192 26c-10.667-7.3333-24.833-16.333-42.5-27s-45.5-23.5-83.5-38.5-66.667-19.5-86-13.5c-29.333 75.333-31.667 143.33-7 204-52.667 56.667-79 125.33-79 206 0 56.667 6.8333 106.67 20.5 150 13.667 43.333 31.167 78.333 52.5 105s48.167 49 80.5 67 63.667 31 94 39 64.5 14 102.5 18c-26.667 24-43 58.333-49 103-14 6.6667-29 11.667-45 15-16 3.3333-35 5-57 5s-43.833-7.1667-65.5-21.5-40.167-35.167-55.5-62.5c-12.667-21.333-28.833-38.667-48.5-52s-36.167-21.333-49.5-24l-20-3c-14 0-23.667 1.5-29 4.5-5.3333 3-7 6.8333-5 11.5s5 9.3333 9 14 8.3333 8.6667 13 12l7 5c14.667 6.6667 29.167 19.333 43.5 38s24.833 35.667 31.5 51l10 23c8.6667 25.333 23.333 45.833 44 61.5s43 25.667 67 30c24 4.3333 47.167 6.6667 69.5 7s40.833-.8333 55.5-3.5l23-4c0 25.333.16667 55 .5 89s.5 52 .5 54c0 12-4.3333 22-13 30z"/></svg>
