<?xml version="1.0" encoding="UTF-8" standalone="no"?>
<svg
   xmlns:dc="http://purl.org/dc/elements/1.1/"
   xmlns:cc="http://creativecommons.org/ns#"
   xmlns:rdf="http://www.w3.org/1999/02/22-rdf-syntax-ns#"
   xmlns:svg="http://www.w3.org/2000/svg"
   xmlns="http://www.w3.org/2000/svg"
   xmlns:sodipodi="http://sodipodi.sourceforge.net/DTD/sodipodi-0.dtd"
   xmlns:inkscape="http://www.inkscape.org/namespaces/inkscape"
   width="1054.8182"
   height="1174.7931"
   viewBox="0 0 1054.8182 1174.7931"
   id="svg2"
   version="1.1"
   inkscape:version="0.91 r13725"
   sodipodi:docname="github-invers.svg">
  <metadata
     id="metadata10">
    <rdf:RDF>
      <cc:Work
         rdf:about="">
        <dc:format>image/svg+xml</dc:format>
        <dc:type
           rdf:resource="http://purl.org/dc/dcmitype/StillImage" />
        <dc:title></dc:title>
      </cc:Work>
    </rdf:RDF>
  </metadata>
  <defs
     id="defs8" />
  <sodipodi:namedview
     pagecolor="#ffffff"
     bordercolor="#666666"
     borderopacity="1"
     objecttolerance="10"
     gridtolerance="10"
     guidetolerance="10"
     inkscape:pageopacity="0"
     inkscape:pageshadow="2"
     inkscape:window-width="1121"
     inkscape:window-height="672"
     id="namedview6"
     showgrid="false"
     fit-margin-top="0"
     fit-margin-left="0"
     fit-margin-right="0"
     fit-margin-bottom="0"
     inkscape:zoom="0.18624688"
     inkscape:cx="-433.55851"
     inkscape:cy="34.813575"
     inkscape:window-x="0"
     inkscape:window-y="0"
     inkscape:window-maximized="0"
     inkscape:current-layer="svg2" />
  <path
     d="m 768.31818,1174.7931 c -8.33333,-8 -12.5,-18 -12.5,-30 l 0,-211 c 0,-64.6667 -17.33333,-112 -52,-142 38,-4 72.16667,-10 102.5,-18 30.3333,-8 61.6667,-21 94,-39 32.3333,-18 59.3333,-40.1667 81,-66.5 21.66672,-26.33333 39.33332,-61.33333 53.00002,-105 13.6667,-43.66667 20.5,-93.83333 20.5,-150.5 0,-80.66667 -26.3333,-149.33333 -79.00002,-206 24.66672,-60.66667 22,-128.666667 -8,-203.9999972 -18.6667,-6 -45.6667,-2.33333002 -81,11.0000002 -35.3333,13.33333 -66,28 -92,44 l -38,24 c -62,-17.33333 -126,-26 -192,-26 -66,0 -130,8.66667 -192,26 -10.66667,-7.33333 -24.83333,-16.33333 -42.5,-27 -17.66667,-10.66667 -45.5,-23.5 -83.5,-38.5 -38,-15.0000002 -66.66667,-19.5000002 -86,-13.5000002 -29.33333,75.3333302 -31.66667,143.3333272 -7,203.9999972 -52.66667,56.66667 -78.999999,125.33333 -78.999999,206 0,56.66667 6.83333,106.66667 20.5,150 13.666669,43.33333 31.166669,78.33333 52.499999,105 21.33333,26.6667 48.16667,49 80.5,67 32.33333,18 63.66667,31 94,39 30.33333,8 64.5,14 102.5,18 -26.66667,24 -43,58.3333 -49,103 -14,6.6667 -29,11.6667 -45,15 -16,3.3333 -35,5 -57,5 -22,0 -43.83333,-7.1667 -65.5,-21.5 -21.66667,-14.3333 -40.16667,-35.1667 -55.5,-62.5 -12.66667,-21.3333 -28.83333,-38.6667 -48.5,-52 -19.666669,-13.3333 -36.166669,-21.3333 -49.499999,-24 l -20,-3 c -14,0 -23.66667,1.5 -28.9999997,4.5 -5.33333002,3 -7,6.8333 -5.00000002,11.5 2.00000002,4.6667 5.00000002,9.3333 9.00000002,14 3.9999997,4.6667 8.3333297,8.6667 12.9999997,12 l 7,5 c 14.66667,6.6667 29.16667,19.3333 43.5,38 14.33333,18.6667 24.83333,35.6667 31.499999,51 l 10,23 c 8.66667,25.3333 23.33333,45.8333 44,61.5 20.66667,15.6667 43,25.6667 67,30 24,4.3333 47.16667,6.6667 69.5,7 22.33333,0.3333 40.83333,-0.8333 55.5,-3.5 l 23,-4 c 0,25.3333 0.16667,55 0.5,89 0.33333,34 0.5,52 0.5,54 0,12 -4.33333,22 -13,30 z"
     id="path4"
     style="fill:#242943;fill-opacity:1"
     inkscape:connector-curvature="0"
     sodipodi:nodetypes="csscsssssccsccscssccsssssccssscsccsssscsscsssccsscc" />
</svg>
