<?xml version="1.0" encoding="UTF-8" standalone="no"?>
<svg
   xmlns:dc="http://purl.org/dc/elements/1.1/"
   xmlns:cc="http://creativecommons.org/ns#"
   xmlns:rdf="http://www.w3.org/1999/02/22-rdf-syntax-ns#"
   xmlns:svg="http://www.w3.org/2000/svg"
   xmlns="http://www.w3.org/2000/svg"
   xmlns:sodipodi="http://sodipodi.sourceforge.net/DTD/sodipodi-0.dtd"
   xmlns:inkscape="http://www.inkscape.org/namespaces/inkscape"
   width="1612.2222"
   height="1283"
   viewBox="0 0 1612.2222 1283"
   id="svg2"
   version="1.1"
   inkscape:version="0.91 r13725"
   sodipodi:docname="home.svg">
  <metadata
     id="metadata10">
    <rdf:RDF>
      <cc:Work
         rdf:about="">
        <dc:format>image/svg+xml</dc:format>
        <dc:type
           rdf:resource="http://purl.org/dc/dcmitype/StillImage" />
        <dc:title></dc:title>
      </cc:Work>
    </rdf:RDF>
  </metadata>
  <defs
     id="defs8" />
  <sodipodi:namedview
     pagecolor="#ffffff"
     bordercolor="#666666"
     borderopacity="1"
     objecttolerance="10"
     gridtolerance="10"
     guidetolerance="10"
     inkscape:pageopacity="0"
     inkscape:pageshadow="2"
     inkscape:window-width="763"
     inkscape:window-height="480"
     id="namedview6"
     showgrid="false"
     fit-margin-top="0"
     fit-margin-left="0"
     fit-margin-right="0"
     fit-margin-bottom="0"
     inkscape:zoom="0.13169643"
     inkscape:cx="798.51789"
     inkscape:cy="640"
     inkscape:window-x="0"
     inkscape:window-y="0"
     inkscape:window-maximized="0"
     inkscape:current-layer="svg2" />
  <path
     d="m 1382.1111,739 0,480 q 0,26 -19,45 -19,19 -45,19 l -383.99999,0 0,-384 -256,0 0,384 -384,0 q -26,0 -45,-19 -19,-19 -19,-45 l 0,-480 q 0,-1 0.5,-3 0.5,-2 0.5,-3 l 575,-474 574.99999,474 q 1,2 1,6 z m 223,-69 -62,74 q -8,9 -21,11 l -3,0 q -13,0 -21,-7 l -691.99999,-577 -692,577 q -12,8 -23.999999,7 -13,-2 -21,-11 L 7.1111111,670 Q -0.88888889,660 0.11111111,646.5 1.1111111,633 11.111111,625 L 730.11111,26 q 32,-26 76,-26 44,0 76,26 l 243.99999,204 0,-195 q 0,-14 9,-23 9,-9 23,-9 l 192,0 q 14,0 23,9 9,9 9,23 l 0,408 219,182 q 10,8 11,21.5 1,13.5 -7,23.5 z"
     id="path4"
     style="fill:#242943;fill-opacity:1"
     inkscape:connector-curvature="0" />
</svg>
