<?xml version="1.0" encoding="UTF-8" standalone="no"?>
<svg
   xmlns:dc="http://purl.org/dc/elements/1.1/"
   xmlns:cc="http://creativecommons.org/ns#"
   xmlns:rdf="http://www.w3.org/1999/02/22-rdf-syntax-ns#"
   xmlns:svg="http://www.w3.org/2000/svg"
   xmlns="http://www.w3.org/2000/svg"
   xmlns:sodipodi="http://sodipodi.sourceforge.net/DTD/sodipodi-0.dtd"
   xmlns:inkscape="http://www.inkscape.org/namespaces/inkscape"
   width="1024"
   height="1536"
   viewBox="0 0 1024 1536"
   id="svg2"
   version="1.1"
   inkscape:version="0.91 r13725"
   sodipodi:docname="lightbulb-o.svg">
  <metadata
     id="metadata10">
    <rdf:RDF>
      <cc:Work
         rdf:about="">
        <dc:format>image/svg+xml</dc:format>
        <dc:type
           rdf:resource="http://purl.org/dc/dcmitype/StillImage" />
        <dc:title></dc:title>
      </cc:Work>
    </rdf:RDF>
  </metadata>
  <defs
     id="defs8" />
  <sodipodi:namedview
     pagecolor="#ffffff"
     bordercolor="#666666"
     borderopacity="1"
     objecttolerance="10"
     gridtolerance="10"
     guidetolerance="10"
     inkscape:pageopacity="0"
     inkscape:pageshadow="2"
     inkscape:window-width="763"
     inkscape:window-height="480"
     id="namedview6"
     showgrid="false"
     fit-margin-top="0"
     fit-margin-left="0"
     fit-margin-right="0"
     fit-margin-bottom="0"
     inkscape:zoom="0.13169643"
     inkscape:cx="512"
     inkscape:cy="768"
     inkscape:window-x="0"
     inkscape:window-y="0"
     inkscape:window-maximized="0"
     inkscape:current-layer="svg2" />
  <path
     d="m 736,448 q 0,13 -9.5,22.5 Q 717,480 704,480 691,480 681.5,470.5 672,461 672,448 672,402 618,377 564,352 512,352 499,352 489.5,342.5 480,333 480,320 q 0,-13 9.5,-22.5 9.5,-9.5 22.5,-9.5 50,0 99.5,16 49.5,16 87,54 37.5,38 37.5,90 z m 160,0 Q 896,376 861.5,314 827,252 771.5,212.5 716,173 648.5,150.5 581,128 512,128 443,128 375.5,150.5 308,173 252.5,212.5 197,252 162.5,314 128,376 128,448 q 0,101 68,180 10,11 30.5,33 20.5,22 30.5,33 128,153 141,298 l 228,0 q 13,-145 141,-298 10,-11 30.5,-33 20.5,-22 30.5,-33 68,-79 68,-180 z m 128,0 q 0,155 -103,268 -45,49 -74.5,87 -29.5,38 -59.5,95.5 -30,57.5 -34,107.5 47,28 47,82 0,37 -25,64 25,27 25,64 0,52 -45,81 13,23 13,47 0,46 -31.5,71 -31.5,25 -77.5,25 -20,44 -60,70 -40,26 -87,26 -47,0 -87,-26 -40,-26 -60,-70 -46,0 -77.5,-25 -31.5,-25 -31.5,-71 0,-24 13,-47 -45,-29 -45,-81 0,-37 25,-64 -25,-27 -25,-64 0,-54 47,-82 Q 267,956 237,898.5 207,841 177.5,803 148,765 103,716 0,603 0,448 0,349 44.5,263.5 89,178 161.5,121.5 234,65 325.5,32.5 417,0 512,0 q 95,0 186.5,32.5 91.5,32.5 164,89 72.5,56.5 117,142 Q 1024,349 1024,448 Z"
     id="path4"
     inkscape:connector-curvature="0"
     style="fill:#242943;fill-opacity:1" />
</svg>
