<?xml version="1.0" encoding="UTF-8" standalone="no"?>
<svg
   xmlns:dc="http://purl.org/dc/elements/1.1/"
   xmlns:cc="http://creativecommons.org/ns#"
   xmlns:rdf="http://www.w3.org/1999/02/22-rdf-syntax-ns#"
   xmlns:svg="http://www.w3.org/2000/svg"
   xmlns="http://www.w3.org/2000/svg"
   xmlns:sodipodi="http://sodipodi.sourceforge.net/DTD/sodipodi-0.dtd"
   xmlns:inkscape="http://www.inkscape.org/namespaces/inkscape"
   width="1792"
   height="1792"
   viewBox="0 0 1792 1792"
   id="svg2"
   version="1.1"
   inkscape:version="0.91 r13725"
   sodipodi:docname="map.svg">
  <metadata
     id="metadata10">
    <rdf:RDF>
      <cc:Work
         rdf:about="">
        <dc:format>image/svg+xml</dc:format>
        <dc:type
           rdf:resource="http://purl.org/dc/dcmitype/StillImage" />
        <dc:title></dc:title>
      </cc:Work>
    </rdf:RDF>
  </metadata>
  <defs
     id="defs8" />
  <sodipodi:namedview
     pagecolor="#ffffff"
     bordercolor="#666666"
     borderopacity="1"
     objecttolerance="10"
     gridtolerance="10"
     guidetolerance="10"
     inkscape:pageopacity="0"
     inkscape:pageshadow="2"
     inkscape:window-width="763"
     inkscape:window-height="480"
     id="namedview6"
     showgrid="false"
     fit-margin-top="0"
     fit-margin-left="0"
     fit-margin-right="0"
     fit-margin-bottom="0"
     inkscape:zoom="0.13169643"
     inkscape:cx="896"
     inkscape:cy="896"
     inkscape:window-x="0"
     inkscape:window-y="0"
     inkscape:window-maximized="0"
     inkscape:current-layer="svg2" />
  <path
     d="M 512,0 Q 525,0 534.5,9.5 544,19 544,32 l 0,1472 q 0,20 -17,28 L 47,1788 q -7,4 -15,4 -13,0 -22.5,-9.5 Q 0,1773 0,1760 L 0,288 Q 0,268 17,260 L 497,4 q 7,-4 15,-4 z m 1248,0 q 13,0 22.5,9.5 9.5,9.5 9.5,22.5 l 0,1472 q 0,20 -17,28 l -480,256 q -7,4 -15,4 -13,0 -22.5,-9.5 -9.5,-9.5 -9.5,-22.5 l 0,-1472 q 0,-20 17,-28 L 1745,4 q 7,-4 15,-4 z M 640,0 q 8,0 14,3 l 512,256 q 18,10 18,29 l 0,1472 q 0,13 -9.5,22.5 -9.5,9.5 -22.5,9.5 -8,0 -14,-3 L 626,1533 q -18,-10 -18,-29 L 608,32 Q 608,19 617.5,9.5 627,0 640,0 Z"
     id="path4"
     inkscape:connector-curvature="0"
     style="fill:#242943;fill-opacity:1" />
</svg>
