<?xml version="1.0" encoding="UTF-8" standalone="no"?>
<svg
   xmlns:dc="http://purl.org/dc/elements/1.1/"
   xmlns:cc="http://creativecommons.org/ns#"
   xmlns:rdf="http://www.w3.org/1999/02/22-rdf-syntax-ns#"
   xmlns:svg="http://www.w3.org/2000/svg"
   xmlns="http://www.w3.org/2000/svg"
   version="1.1"
   id="svg2"
   viewBox="0 0 1920 1792"
   height="1792"
   width="1920">
  <metadata
     id="metadata10">
    <rdf:RDF>
      <cc:Work
         rdf:about="">
        <dc:format>image/svg+xml</dc:format>
        <dc:type
           rdf:resource="http://purl.org/dc/dcmitype/StillImage" />
        <dc:title></dc:title>
      </cc:Work>
    </rdf:RDF>
  </metadata>
  <defs
     id="defs8" />
  <path
     style="fill:#242943;fill-opacity:1"
     id="path4"
     d="m 593,896 q -162,5 -265,128 l -134,0 Q 112,1024 56,983.5 0,943 0,865 0,512 124,512 q 6,0 43.5,21 37.5,21 97.5,42.5 60,21.5 119,21.5 67,0 133,-23 -5,37 -5,66 0,139 81,256 z m 1071,637 q 0,120 -73,189.5 -73,69.5 -194,69.5 l -874,0 q -121,0 -194,-69.5 -73,-69.5 -73,-189.5 0,-53 3.5,-103.5 3.5,-50.5 14,-109 Q 284,1262 300,1212 q 16,-50 43,-97.5 27,-47.5 62,-81 35,-33.5 85.5,-53.5 50.5,-20 111.5,-20 10,0 43,21.5 33,21.5 73,48 40,26.5 107,48 67,21.5 135,21.5 68,0 135,-21.5 67,-21.5 107,-48 40,-26.5 73,-48 33,-21.5 43,-21.5 61,0 111.5,20 50.5,20 85.5,53.5 35,33.5 62,81 27,47.5 43,97.5 16,50 26.5,108.5 10.5,58.5 14,109 3.5,50.5 3.5,103.5 z M 640,256 q 0,106 -75,181 -75,75 -181,75 -106,0 -181,-75 -75,-75 -75,-181 0,-106 75,-181 75,-75 181,-75 106,0 181,75 75,75 75,181 z m 704,384 q 0,159 -112.5,271.5 Q 1119,1024 960,1024 801,1024 688.5,911.5 576,799 576,640 576,481 688.5,368.5 801,256 960,256 1119,256 1231.5,368.5 1344,481 1344,640 Z m 576,225 q 0,78 -56,118.5 -56,40.5 -138,40.5 l -134,0 q -103,-123 -265,-128 81,-117 81,-256 0,-29 -5,-66 66,23 133,23 59,0 119,-21.5 60,-21.5 97.5,-42.5 37.5,-21 43.5,-21 124,0 124,353 z M 1792,256 q 0,106 -75,181 -75,75 -181,75 -106,0 -181,-75 -75,-75 -75,-181 0,-106 75,-181 75,-75 181,-75 106,0 181,75 75,75 75,181 z" />
</svg>
