<?xml version="1.0" encoding="UTF-8" standalone="no"?>
<!-- Created with Inkscape (http://www.inkscape.org/) -->

<svg
   xmlns:dc="http://purl.org/dc/elements/1.1/"
   xmlns:cc="http://creativecommons.org/ns#"
   xmlns:rdf="http://www.w3.org/1999/02/22-rdf-syntax-ns#"
   xmlns:svg="http://www.w3.org/2000/svg"
   xmlns="http://www.w3.org/2000/svg"
   xmlns:sodipodi="http://sodipodi.sourceforge.net/DTD/sodipodi-0.dtd"
   xmlns:inkscape="http://www.inkscape.org/namespaces/inkscape"
   width="172.78081mm"
   height="31.080479mm"
   viewBox="0 0 612.21546 110.12768"
   id="svg4343"
   version="1.1"
   inkscape:version="0.91 r13725"
   sodipodi:docname="kraut.space.svg">
  <defs
     id="defs4345" />
  <sodipodi:namedview
     id="base"
     pagecolor="#ffffff"
     bordercolor="#666666"
     borderopacity="1.0"
     inkscape:pageopacity="0.0"
     inkscape:pageshadow="2"
     inkscape:zoom="1.4"
     inkscape:cx="281.10771"
     inkscape:cy="63.635268"
     inkscape:document-units="px"
     inkscape:current-layer="layer1"
     showgrid="false"
     inkscape:window-width="1364"
     inkscape:window-height="753"
     inkscape:window-x="0"
     inkscape:window-y="13"
     inkscape:window-maximized="1"
     fit-margin-top="0"
     fit-margin-left="0"
     fit-margin-right="0"
     fit-margin-bottom="0" />
  <metadata
     id="metadata4348">
    <rdf:RDF>
      <cc:Work
         rdf:about="">
        <dc:format>image/svg+xml</dc:format>
        <dc:type
           rdf:resource="http://purl.org/dc/dcmitype/StillImage" />
        <dc:title></dc:title>
      </cc:Work>
    </rdf:RDF>
  </metadata>
  <g
     inkscape:label="Ebene 1"
     inkscape:groupmode="layer"
     id="layer1"
     transform="translate(-156.74944,-354.44122)">
    <g
       id="g4359">
      <rect
         style="opacity:1;fill:#ffffff;fill-opacity:1;stroke:none;stroke-width:3;stroke-linejoin:round;stroke-miterlimit:4;stroke-dasharray:none;stroke-dashoffset:0;stroke-opacity:1"
         id="rect4278"
         width="612.21545"
         height="110.12768"
         x="156.74944"
         y="354.44122" />
      <path
         style="color:#000000;font-style:normal;font-variant:normal;font-weight:normal;font-stretch:normal;font-size:medium;line-height:125%;font-family:'Squared Display';-inkscape-font-specification:'Squared Display, Normal';text-indent:0;text-align:start;text-decoration:none;text-decoration-line:none;text-decoration-style:solid;text-decoration-color:#000000;letter-spacing:0px;word-spacing:0px;text-transform:none;direction:ltr;block-progression:tb;writing-mode:lr-tb;baseline-shift:baseline;text-anchor:start;white-space:normal;clip-rule:nonzero;display:inline;overflow:visible;visibility:visible;opacity:1;isolation:auto;mix-blend-mode:normal;color-interpolation:sRGB;color-interpolation-filters:linearRGB;solid-color:#000000;solid-opacity:1;fill:#242942;fill-opacity:1;fill-rule:nonzero;stroke:none;stroke-width:3;stroke-linecap:butt;stroke-linejoin:miter;stroke-miterlimit:4;stroke-dasharray:none;stroke-dashoffset:0;stroke-opacity:1;color-rendering:auto;image-rendering:auto;shape-rendering:auto;text-rendering:auto;enable-background:accumulate"
         d="m 201.93629,372.5404 0,1.5 0,62.30463 5.5351,0 0,-18.1249 8.7735,4.3867 c 2.5626,1.2813 4.417,2.2261 5.5429,2.8222 l 0.016,0.01 0.016,0.01 c 1.2061,0.6031 2.0522,1.0785 1.9668,1.0215 l 0.168,0.1113 0.3046,0.1016 0.3028,0.2012 0.1894,0.064 c -0.136,-0.045 0.1429,0.063 0.4629,0.2226 0.3201,0.1601 0.76961,0.3925 1.33791,0.6934 l 0.0156,0.01 5.6914,2.8457 c 2.57182,1.2859 6.25242,3.1112 11.05078,5.4766 l 2.16407,1.0664 0,-5.8789 -34.08199,-16.8028 34.08199,-16.80074 0,-5.89648 -38.00199,19.05272 0,-38.39061 -5.5351,0 z m 212.82027,0 0,1.5 0,18.76757 -10.13477,0 0,5.53321 10.13477,0 0,38.00385 33.40234,0 0,-5.5332 -27.86914,0 0,-32.47065 17.73438,0 0,-5.53321 -17.73438,0 0,-20.26757 -5.5332,0 z m -162.14843,20.26757 0,1.5 0,42.03706 5.53319,0 0,-38.00385 38.00391,0 0,-5.53321 -43.5371,0 z m 50.67187,0 0,1.5 0,4.03321 38.0039,0 0,32.47065 -32.4707,0 0,-22.3359 27.86914,0 0,-5.53319 -33.40234,0 0,33.40229 43.53711,0 0,-43.53706 -43.53711,0 z m 50.66992,0 0,1.5 0,42.03706 43.53711,0 0,-43.53706 -5.5332,0 0,38.00386 -32.46875,0 0,-38.00386 -5.53516,0 z m 123.60742,0 0,1.5 0,14.16796 38.00195,0 0,22.3359 -38.00195,0 0,5.5332 43.53711,0 0,-33.40229 -38.00391,0 0,-4.60156 38.00391,0 0,-5.53321 -43.53711,0 z m 50.66992,0 0,1.5 0,62.30466 5.53516,0 0,-58.27145 32.46875,0 0,32.47065 -27.86914,0 0,5.5332 33.40234,0 0,-43.53706 -43.53711,0 z m 50.67188,0 0,1.5 0,4.03321 38.0039,0 0,32.47065 -32.4707,0 0,-22.3359 27.86914,0 0,-5.53319 -33.40234,0 0,33.40229 43.53711,0 0,-43.53706 -43.53711,0 z m 50.67187,0 0,1.5 0,42.03706 43.53711,0 0,-5.5332 -38.0039,0 0,-32.47065 38.0039,0 0,-5.53321 -43.53711,0 z m 50.66993,0 0,1.5 0,42.03706 43.5371,0 0,-5.5332 -38.00195,0 0,-32.47065 32.46875,0 0,4.60156 -27.86914,0 0,5.53319 33.40234,0 0,-15.66796 -43.5371,0 z m -224.11133,37.96876 0,1.5 0,4.0683 13.4414,0 0,-5.5683 -13.4414,0 z"
         id="path4276"
         inkscape:connector-curvature="0" />
    </g>
  </g>
</svg>
