<?xml version="1.0" encoding="UTF-8" standalone="no"?>
<!-- Created with Inkscape (http://www.inkscape.org/) -->

<svg
   xmlns:dc="http://purl.org/dc/elements/1.1/"
   xmlns:cc="http://creativecommons.org/ns#"
   xmlns:rdf="http://www.w3.org/1999/02/22-rdf-syntax-ns#"
   xmlns:svg="http://www.w3.org/2000/svg"
   xmlns="http://www.w3.org/2000/svg"
   xmlns:sodipodi="http://sodipodi.sourceforge.net/DTD/sodipodi-0.dtd"
   xmlns:inkscape="http://www.inkscape.org/namespaces/inkscape"
   id="svg2"
   version="1.1"
   inkscape:version="0.92.1 r15371"
   width="674.5"
   height="537.7019"
   viewBox="0 0 674.5 537.7019"
   sodipodi:docname="lageplan.svg">
  <metadata
     id="metadata8">
    <rdf:RDF>
      <cc:Work
         rdf:about="">
        <dc:format>image/svg+xml</dc:format>
        <dc:type
           rdf:resource="http://purl.org/dc/dcmitype/StillImage" />
        <dc:title />
      </cc:Work>
    </rdf:RDF>
  </metadata>
  <defs
     id="defs6" />
  <sodipodi:namedview
     pagecolor="#ffffff"
     bordercolor="#666666"
     borderopacity="1"
     objecttolerance="10"
     gridtolerance="10"
     guidetolerance="10"
     inkscape:pageopacity="0"
     inkscape:pageshadow="2"
     inkscape:window-width="1364"
     inkscape:window-height="752"
     id="namedview4"
     showgrid="false"
     inkscape:object-nodes="false"
     inkscape:snap-intersection-paths="false"
     inkscape:object-paths="false"
     inkscape:zoom="0.70710678"
     inkscape:cx="478.13401"
     inkscape:cy="265.97712"
     inkscape:window-x="0"
     inkscape:window-y="14"
     inkscape:window-maximized="1"
     inkscape:current-layer="layer4"
     fit-margin-top="0"
     fit-margin-left="0"
     fit-margin-right="0"
     fit-margin-bottom="0"
     showguides="false" />
  <g
     inkscape:groupmode="layer"
     id="layer4"
     inkscape:label="kombiniert"
     style="display:inline"
     transform="translate(-550.25,-192.29807)">
    <path
       sodipodi:nodetypes="ccccccccccccscccccccccsccccccccsccccsccccccccccccccccccccscccsccscccccccccccccccccccccsccccccccccccccccccscccccccccccccccc"
       inkscape:connector-curvature="0"
       id="path4300"
       d="m 905.09668,730 19.09188,-113.32085 1.41422,-38.18377 12.02081,-37.47666 9.19239,-35.35534 1.41421,-20.50609 -65.05382,-14.14214 -32.52691,0 -3.73953,18.38731 -5.74214,-1.28514 L 844.25,470.5 811,469.75 c 0,0 -36.5,-5 -37.75,-5.25 -1.25,-0.25 -52,-12.5 -52,-12.5 l -170.375,-52 0,-11.25 45.875,11.75 82.25,22.75 82.75,20.25 72,12.5 13,2 6,-0.25 c 0,0 6.25,-2.5 7.25,-2.5 1,0 11,-1.75 11,-1.75 l 24.75,5 56,11.25 3.25,-26 0.5,-54 -3,-16.5 -9,-7.75 -33.5,-7.25 c 0,0 -40.75,-5.25 -41.75,-5.25 -1,0 -64.75,-4.25 -64.75,-4.25 L 685.25,320.5 636,307.25 l -26,-3.5 c 0,0 -22.75,-1.25 -24,-0.75 -1.25,0.5 -35,4.25 -35,4.25 l 0,-16.25 26.75,-3 32.75,-1 41.25,4.75 35.58691,11.36315 4.28809,6.26185 17,6.375 31.125,3.875 35,5.5 34.25,4.875 47.25,5 0.875,-1.875 -23.75,-14 L 760.875,282 709.25,254.75 663.375,221.625 626.25,193 l 19.125,0 c 0.625,0.25 25.875,16 25.875,16 0,0 35.375,30.875 36,31.25 0.625,0.375 61.55185,34.01269 61.55185,34.01269 l 65.05382,35.6205 c 0,0 53.74012,20.85965 54.18206,20.94804 0.44194,0.0884 27.22361,6.18719 27.66555,6.18719 0.44195,0 19.88738,-0.97228 19.88738,-0.97228 l 3.00521,-2.91681 c 0,0 1.76776,-4.33103 1.94454,-4.86136 0.17678,-0.53033 -0.0884,-10.07627 -0.0884,-10.07627 l -2.82843,-15.82152 -0.44194,-14.93763 c 0,0 0.70711,-9.19239 0.88389,-10.07627 0.17677,-0.88388 -4.41942,-9.28078 -4.77297,-9.63433 -0.35356,-0.35355 -28.99138,-22.18547 -29.52171,-22.45064 -0.53033,-0.26516 -10.69499,-8.66206 -10.69499,-8.66206 l -15.11441,-8.3085 -26.25134,-6.27558 -74.24621,-23.24613 -20.02781,-6.06761 28.05725,0 68.86842,23.83367 6.45235,-0.26517 c 0,0 8.48528,-1.41421 9.19239,-1.59099 0.70711,-0.17677 4.15425,-2.03293 4.15425,-2.03293 l -3.44714,-7.24784 -0.70711,-11.22532 0.0884,-1.66727 9.8111,0.0884 0.97228,10.32932 c 0,0 4.24264,12.72792 4.24264,13.16987 0,0.44194 10.69499,12.72792 10.69499,12.72792 l 15.29118,12.28598 35.17856,23.68808 5.3033,-13.78859 13.25826,-31.1127 13.05894,-27.4303 22.53905,0 -0.4194,1.7093 -10.8718,23.06935 -18.82672,41.27736 -5.83363,26.42812 -1.23743,15.99829 2.65165,27.22361 6.89429,41.98447 2.82842,44.10578 0.26517,12.37437 -2.47487,39.15604 -10.16466,57.6292 c 0,0 -3.18199,20.5061 -3.0936,20.85965 C 960.25101,544.64264 961.5,573 961.5,573 l -2.5,13 -5.5,17.5 -9,19.5 -7.5,42.5 10.5,16 27.5,7 248.75,30 0,11.25 -89.25,0 -191.5,-22.25 -8,-2.5 -11.5,3.5 -3.5,15 -2.5,6.5 z"
       style="fill:#314159;fill-rule:evenodd;stroke:none;stroke-width:1px;stroke-linecap:butt;stroke-linejoin:miter;stroke-opacity:1;fill-opacity:1" />
    <path
       style="fill:#425777;fill-rule:evenodd;stroke:none;stroke-width:1px;stroke-linecap:butt;stroke-linejoin:miter;stroke-opacity:1;fill-opacity:1"
       d="M 455.16016 0 L 444.64844 18.855469 L 423.08203 64.109375 L 414.95117 99.111328 L 416.1875 134.64453 L 422.19922 135.17383 C 422.19922 135.17383 423.61328 167.7011 423.61328 168.4082 L 454.90234 176.54102 L 454.54883 202.34961 L 476.11523 202.34961 L 476.11523 180.42969 L 476.46875 159.57031 L 482.83203 116.43555 L 509.13086 0 L 455.16016 0 z M 1.125 0.076171875 L 0.625 96.326172 L 13.5 94.701172 L 23.75 92.701172 L 52.5 91.451172 L 91.75 93.951172 L 110.5 98.701172 L 127.25 106.45117 L 158.25 120.20117 L 195.25 123.45117 L 199 111.20117 L 208.5 90.951172 L 157.25 64.701172 L 81.5 9.9511719 L 1.125 0.076171875 z M 96.5 0.32617188 L 117 11.701172 L 137 26.701172 L 158.75 46.951172 L 185 62.951172 L 189 56.951172 L 194.75 59.951172 L 225 76.951172 L 276.25 86.951172 L 295 95.701172 C 295 95.701172 349.75 99.201172 350.75 98.951172 L 359.5 62.951172 L 340.25 46.951172 L 270.25 23.201172 L 259.5 47.951172 L 258 55.951172 L 238.25 52.951172 L 204.75 40.201172 L 173 23.951172 L 170.5 29.201172 L 138 0.32617188 L 96.5 0.32617188 z M 332.875 0.60742188 L 332.625 7.5761719 L 341.875 28.951172 L 359.375 45.826172 C 359.375 45.826172 377.875 59.076172 378.625 59.326172 L 392.125 36.201172 L 365.375 21.451172 L 370.625 4.7011719 L 360.9375 0.60742188 L 332.875 0.60742188 z M 555.25 24.701172 L 554 64.951172 L 527.75 62.201172 L 524.75 101.70117 L 539.5 102.95117 L 534.25 160.70117 L 519.25 159.20117 L 516.75 191.70117 L 567.25 204.45117 L 607.5 207.95117 L 626.25 210.95117 L 649 219.20117 L 674.5 222.95117 L 674.5 33.951172 L 555.25 24.701172 z M 43.242188 114.00781 C 42.021848 113.80442 0.8515625 118.57812 0.8515625 118.57812 L 0.8515625 192.82031 L 36.529297 200.24414 L 136.80078 228.3125 L 241.95312 252.71875 L 286.49609 261.66797 L 290.56445 242.3457 L 329.81836 251.70117 L 337.14062 222.21094 L 361.75 185.19336 L 266.56445 162.82031 L 229.54688 158.75195 L 194.35938 150.61719 L 120.73242 131.29492 C 120.73242 131.29492 70.903404 116.65119 70.089844 116.04102 C 69.276294 115.43085 44.462527 114.2112 43.242188 114.00781 z M 372.14648 117.30859 L 363.14062 121.54102 L 360.83594 131.21875 L 366.96875 139.05273 L 376.92188 139.14453 L 383.19922 131.42578 L 381.07422 121.70703 L 372.14648 117.30859 z M 0 211.70117 L 0.5 508.45117 L 63 531.95117 L 136.25 314.20117 L 160.25 322.45117 C 160.25 322.45117 158.7558 337.51549 159.75 344.95117 C 161.305 356.58111 164.19899 368.36387 169.75 378.70117 C 175.15115 388.75939 182.56604 398.1692 191.75 404.95117 C 200.55245 411.45141 211.33944 415.23368 222 417.70117 C 230.70065 419.71502 248.75 419.20117 248.75 419.20117 L 269 329.20117 L 319 339.45117 L 299.5 431.20117 L 305.75 432.45117 L 292 515.45117 L 185 494.20117 L 175.5 536.70117 L 329.25 536.70117 L 334 513.95117 L 344 452.20117 L 344.25 441.20117 L 375 297.45117 L 314.25 284.20117 L 310.5 300.20117 L 258 288.45117 L 256.5 295.95117 C 256.5 295.95117 1.25 211.70117 0 211.70117 z M 646.25 250.20117 L 643.75 267.20117 L 481.25 251.20117 L 459.25 458.45898 L 660.25 477.20117 L 673.25 325.20117 L 673.25 252.70117 L 646.25 250.20117 z "
       transform="translate(550.25,192.29807)"
       id="path4302" />
    <path
       sodipodi:nodetypes="ccccccccc"
       inkscape:connector-curvature="0"
       id="path4304"
       d="m 765.73393,417.54629 0.96158,-5.92811 5.4651,-6.18419 3.30782,-17.2582 -3.45164,-1.00672 1.72582,-11.07402 17.11438,3.73928 -8.48528,41.85113 z"
       style="fill:#232e3f;fill-rule:evenodd;stroke:none;stroke-width:1px;stroke-linecap:butt;stroke-linejoin:miter;stroke-opacity:1;fill-opacity:1" />
    <path
       style="opacity:1;fill:#202a3e;fill-opacity:0.94117647;stroke:none;stroke-width:1.5;stroke-linejoin:miter;stroke-miterlimit:4;stroke-dasharray:none;stroke-dashoffset:0;stroke-opacity:1"
       d="M 221.11133 156.80273 L 214.70508 192.91992 L 221.76758 194.87109 L 228.6875 158.55469 L 221.11133 156.80273 z M 216.44531 219.32031 L 210.20898 223.47461 L 206.40234 244.4668 L 212.15039 245.80078 L 216.44531 219.32031 z M 163.05078 264.94727 L 146.13867 317.60156 L 160.25 322.45117 L 177.62695 269.69922 L 163.05078 264.94727 z M 283.00781 294.04883 L 275.44922 330.52344 L 301.36914 335.83789 L 307.62695 299.55859 L 283.00781 294.04883 z "
       transform="translate(550.25,192.29807)"
       id="path4306" />
    <path
       inkscape:connector-curvature="0"
       id="path4318"
       d="m 1172,557.5 a 49,49 0 0 1 -49,49 49,49 0 0 1 -49,-49 49,49 0 0 1 49,-49 49,49 0 0 1 49,49 z"
       style="opacity:1;fill:#314159;fill-opacity:1;stroke:none;stroke-width:1;stroke-linejoin:miter;stroke-miterlimit:4;stroke-dasharray:none;stroke-dashoffset:0;stroke-opacity:1" />
    <text
       id="text4375"
       y="551.62531"
       x="729.73419"
       style="font-style:normal;font-variant:normal;font-weight:normal;font-stretch:normal;line-height:0%;font-family:sans-serif;-inkscape-font-specification:'sans-serif, Normal';text-align:start;letter-spacing:0px;word-spacing:0px;writing-mode:lr;text-anchor:start;display:inline;fill:#f9f9f9;fill-opacity:1;stroke:none;stroke-width:1px;stroke-linecap:butt;stroke-linejoin:miter;stroke-opacity:1;font-size:13.33333333px;font-variant-ligatures:normal;font-variant-caps:normal;font-variant-numeric:normal;font-feature-settings:normal;"
       xml:space="preserve"><tspan
         y="551.62531"
         x="729.73419"
         id="tspan4377"
         sodipodi:role="line"
         style="font-size:13.33333333px;line-height:1.25;-inkscape-font-specification:'sans-serif, Normal';font-family:sans-serif;font-weight:normal;font-style:normal;font-stretch:normal;font-variant:normal;text-anchor:start;text-align:start;writing-mode:lr;font-variant-ligatures:normal;font-variant-caps:normal;font-variant-numeric:normal;font-feature-settings:normal;">Mensa</tspan></text>
    <text
       transform="rotate(6.5698238)"
       id="text4379"
       y="368.75452"
       x="793.49762"
       style="font-style:normal;font-variant:normal;font-weight:normal;font-stretch:normal;line-height:0%;font-family:sans-serif;-inkscape-font-specification:'sans-serif, Normal';text-align:start;letter-spacing:0px;word-spacing:0px;writing-mode:lr;text-anchor:start;display:inline;fill:#f9f9f9;fill-opacity:1;stroke:none;stroke-width:1px;stroke-linecap:butt;stroke-linejoin:miter;stroke-opacity:1;font-size:13.33333333px;font-variant-ligatures:normal;font-variant-caps:normal;font-variant-numeric:normal;font-feature-settings:normal;"
       xml:space="preserve"><tspan
         y="368.75452"
         x="793.49762"
         id="tspan4381"
         sodipodi:role="line"
         style="font-size:13.33333333px;line-height:1.25;-inkscape-font-specification:'sans-serif, Normal';font-family:sans-serif;font-weight:normal;font-style:normal;font-stretch:normal;font-variant:normal;text-anchor:start;text-align:start;writing-mode:lr;font-variant-ligatures:normal;font-variant-caps:normal;font-variant-numeric:normal;font-feature-settings:normal;">Krautgasse</tspan></text>
    <text
       transform="rotate(10.842281)"
       id="text4383"
       y="181.40787"
       x="642.10553"
       style="font-style:normal;font-variant:normal;font-weight:normal;font-stretch:normal;line-height:0%;font-family:sans-serif;-inkscape-font-specification:'sans-serif, Normal';text-align:start;letter-spacing:0px;word-spacing:0px;writing-mode:lr;text-anchor:start;display:inline;fill:#f9f9f9;fill-opacity:1;stroke:none;stroke-width:1px;stroke-linecap:butt;stroke-linejoin:miter;stroke-opacity:1;font-size:13.33333333px;font-variant-ligatures:normal;font-variant-caps:normal;font-variant-numeric:normal;font-feature-settings:normal;"
       xml:space="preserve"><tspan
         y="181.40787"
         x="642.10553"
         id="tspan4385"
         sodipodi:role="line"
         style="font-size:13.33333333px;line-height:1.25;-inkscape-font-specification:'sans-serif, Normal';font-family:sans-serif;font-weight:normal;font-style:normal;font-stretch:normal;font-variant:normal;text-anchor:start;text-align:start;writing-mode:lr;font-variant-ligatures:normal;font-variant-caps:normal;font-variant-numeric:normal;font-feature-settings:normal;">Bachstraße</tspan></text>
    <text
       transform="rotate(25.402954)"
       id="text4387"
       y="-71.314049"
       x="798.76001"
       style="font-style:normal;font-variant:normal;font-weight:normal;font-stretch:normal;line-height:0%;font-family:sans-serif;-inkscape-font-specification:'sans-serif, Normal';text-align:start;letter-spacing:0px;word-spacing:0px;writing-mode:lr;text-anchor:start;display:inline;fill:#f9f9f9;fill-opacity:1;stroke:none;stroke-width:1px;stroke-linecap:butt;stroke-linejoin:miter;stroke-opacity:1;font-size:13.33333333px;font-variant-ligatures:normal;font-variant-caps:normal;font-variant-numeric:normal;font-feature-settings:normal;"
       xml:space="preserve"><tspan
         y="-71.314049"
         x="798.76001"
         id="tspan4389"
         sodipodi:role="line"
         style="font-size:13.33333333px;line-height:1.25;-inkscape-font-specification:'sans-serif, Normal';font-family:sans-serif;font-weight:normal;font-style:normal;font-stretch:normal;font-variant:normal;text-anchor:start;text-align:start;writing-mode:lr;font-variant-ligatures:normal;font-variant-caps:normal;font-variant-numeric:normal;font-feature-settings:normal;">Wagnergasse</tspan></text>
    <text
       transform="rotate(2.2358224)"
       xml:space="preserve"
       style="font-style:normal;font-variant:normal;font-weight:normal;font-stretch:normal;line-height:0%;font-family:sans-serif;-inkscape-font-specification:'sans-serif, Normal';text-align:start;letter-spacing:0px;word-spacing:0px;writing-mode:lr;text-anchor:start;display:inline;fill:#ffffff;fill-opacity:1;stroke:none;stroke-width:1px;stroke-linecap:butt;stroke-linejoin:miter;stroke-opacity:1;font-size:13.33333333px;font-variant-ligatures:normal;font-variant-caps:normal;font-variant-numeric:normal;font-feature-settings:normal;"
       x="1073.2875"
       y="382.75116"
       id="text4391"><tspan
         sodipodi:role="line"
         id="tspan4393"
         x="1073.2875"
         y="382.75116"
         style="font-size:13.33333333px;line-height:1.25;-inkscape-font-specification:'sans-serif, Normal';font-family:sans-serif;font-weight:normal;font-style:normal;font-stretch:normal;font-variant:normal;text-anchor:start;text-align:start;writing-mode:lr;font-variant-ligatures:normal;font-variant-caps:normal;font-variant-numeric:normal;font-feature-settings:normal;fill:#ffffff;">Johannisstraße</tspan></text>
    <text
       xml:space="preserve"
       style="font-style:normal;font-variant:normal;font-weight:normal;font-stretch:normal;line-height:0%;font-family:sans-serif;-inkscape-font-specification:'sans-serif, Normal';text-align:start;letter-spacing:0px;word-spacing:0px;writing-mode:lr;text-anchor:start;display:inline;fill:#ffffff;fill-opacity:1;stroke:none;stroke-width:1px;stroke-linecap:butt;stroke-linejoin:miter;stroke-opacity:1;font-size:13.33333333px;font-variant-ligatures:normal;font-variant-caps:normal;font-variant-numeric:normal;font-feature-settings:normal;"
       x="681.65094"
       y="652.03448"
       id="text4395"><tspan
         sodipodi:role="line"
         id="tspan4397"
         x="681.65094"
         y="652.03448"
         style="font-size:13.33333333px;line-height:1.25;-inkscape-font-specification:'sans-serif, Normal';font-family:sans-serif;font-weight:normal;font-style:normal;font-stretch:normal;font-variant:normal;text-anchor:start;text-align:start;writing-mode:lr;font-variant-ligatures:normal;font-variant-caps:normal;font-variant-numeric:normal;font-feature-settings:normal;fill:#ffffff;">Abbe-Platz</tspan></text>
    <text
       id="text4399"
       y="564.35327"
       x="1084.7018"
       style="font-style:normal;font-variant:normal;font-weight:normal;font-stretch:normal;line-height:0%;font-family:sans-serif;-inkscape-font-specification:'sans-serif, Normal';text-align:start;letter-spacing:0px;word-spacing:0px;writing-mode:lr;text-anchor:start;display:inline;fill:#f9f9f9;fill-opacity:1;stroke:none;stroke-width:1px;stroke-linecap:butt;stroke-linejoin:miter;stroke-opacity:1;font-size:13.33333333px;font-variant-ligatures:normal;font-variant-caps:normal;font-variant-numeric:normal;font-feature-settings:normal;"
       xml:space="preserve"><tspan
         y="564.35327"
         x="1084.7018"
         id="tspan4401"
         sodipodi:role="line"
         style="font-size:13.33333333px;line-height:1.25;-inkscape-font-specification:'sans-serif, Normal';font-family:sans-serif;font-weight:normal;font-style:normal;font-stretch:normal;font-variant:normal;text-anchor:start;text-align:start;writing-mode:lr;font-variant-ligatures:normal;font-variant-caps:normal;font-variant-numeric:normal;font-feature-settings:normal;">Keksrolle</tspan></text>
    <path
       sodipodi:nodetypes="ccccccc"
       inkscape:connector-curvature="0"
       id="path4403"
       d="m 568.35713,402.24998 154.03571,0 27.07806,27.50089 -10.11377,-27.50089 0,-39 -171,0 z"
       style="opacity:1;fill:#ffffff;fill-opacity:1;stroke:#000000;stroke-width:2;stroke-linejoin:miter;stroke-miterlimit:4;stroke-dasharray:none;stroke-dashoffset:0;stroke-opacity:1" />
    <text
       id="text4409"
       y="475"
       x="570"
       style="font-style:normal;font-variant:normal;font-weight:normal;font-stretch:normal;line-height:0%;font-family:'Caecilia LT Std';-inkscape-font-specification:'Caecilia LT Std, Normal';text-align:start;letter-spacing:0px;word-spacing:0px;writing-mode:lr-tb;text-anchor:start;fill:#000000;fill-opacity:1;stroke:none;stroke-width:1px;stroke-linecap:butt;stroke-linejoin:miter;stroke-opacity:1"
       xml:space="preserve"><tspan
         y="475"
         x="570"
         id="tspan4411"
         sodipodi:role="line"
         style="font-size:22.5px;line-height:1.25"> </tspan></text>
    <path
       inkscape:connector-curvature="0"
       id="path4276"
       d="m 572.88548,369.44618 0,0.46864 0,19.46553 1.72932,0 0,-5.66267 2.74104,1.37052 c 0.80062,0.40031 1.37999,0.69548 1.73176,0.88172 l 0.005,0.003 0.005,0.003 c 0.37682,0.18842 0.64116,0.33695 0.61448,0.31914 l 0.0525,0.0348 0.0952,0.0317 0.0946,0.0629 0.0592,0.02 c -0.0425,-0.0141 0.0446,0.0197 0.14462,0.0695 0.1,0.05 0.24044,0.12262 0.41799,0.21663 l 0.005,0.003 1.77814,0.88906 c 0.8035,0.40175 1.95341,0.97202 3.45254,1.71103 l 0.67611,0.33317 0,-1.83671 -10.64808,-5.24962 10.64808,-5.24898 0,-1.84222 -11.87276,5.95257 0,-11.99417 -1.72932,0 z m 66.49034,0 0,0.46864 0,5.86346 -3.16635,0 0,1.72871 3.16635,0 0,11.87336 10.43572,0 0,-1.72871 -8.70701,0 0,-10.14465 5.54066,0 0,-1.72871 -5.54066,0 0,-6.3321 -1.72871,0 z m -50.65919,6.3321 0,0.46864 0,13.13343 1.7287,0 0,-11.87336 11.87337,0 0,-1.72871 -13.60207,0 z m 15.83115,0 0,0.46864 0,1.26007 11.87336,0 0,10.14465 -10.14465,0 0,-6.97829 8.70701,0 0,-1.72871 -10.43572,0 0,10.43571 13.60207,0 0,-13.60207 -13.60207,0 z m 15.83054,0 0,0.46864 0,13.13343 13.60207,0 0,-13.60207 -1.72871,0 0,11.87336 -10.14404,0 0,-11.87336 -1.72932,0 z m 38.61802,0 0,0.46864 0,4.42643 11.87275,0 0,6.97829 -11.87275,0 0,1.72871 13.60207,0 0,-10.43571 -11.87336,0 0,-1.43765 11.87336,0 0,-1.72871 -13.60207,0 z m 15.83054,0 0,0.46864 0,19.46553 1.72932,0 0,-18.20546 10.14404,0 0,10.14465 -8.70701,0 0,1.72871 10.43572,0 0,-13.60207 -13.60207,0 z m 15.83115,0 0,0.46864 0,1.26007 11.87336,0 0,10.14465 -10.14465,0 0,-6.97829 8.70701,0 0,-1.72871 -10.43572,0 0,10.43571 13.60208,0 0,-13.60207 -13.60208,0 z m 15.83115,0 0,0.46864 0,13.13343 13.60207,0 0,-1.72871 -11.87336,0 0,-10.14465 11.87336,0 0,-1.72871 -13.60207,0 z m 15.83054,0 0,0.46864 0,13.13343 13.60207,0 0,-1.72871 -11.87275,0 0,-10.14465 10.14405,0 0,1.43765 -8.70701,0 0,1.72871 10.43571,0 0,-4.89507 -13.60207,0 z m -70.01793,11.8624 0,0.46863 0,1.27104 4.19942,0 0,-1.73967 -4.19942,0 z"
       style="color:#000000;font-style:normal;font-variant:normal;font-weight:normal;font-stretch:normal;font-size:medium;line-height:125%;font-family:'Squared Display';-inkscape-font-specification:'Squared Display, Normal';text-indent:0;text-align:start;text-decoration:none;text-decoration-line:none;text-decoration-style:solid;text-decoration-color:#000000;letter-spacing:0px;word-spacing:0px;text-transform:none;direction:ltr;block-progression:tb;writing-mode:lr-tb;baseline-shift:baseline;text-anchor:start;white-space:normal;clip-rule:nonzero;display:inline;overflow:visible;visibility:visible;opacity:1;isolation:auto;mix-blend-mode:normal;color-interpolation:sRGB;color-interpolation-filters:linearRGB;solid-color:#000000;solid-opacity:1;fill:#242942;fill-opacity:1;fill-rule:nonzero;stroke:none;stroke-width:3;stroke-linecap:butt;stroke-linejoin:miter;stroke-miterlimit:4;stroke-dasharray:none;stroke-dashoffset:0;stroke-opacity:1;color-rendering:auto;image-rendering:auto;shape-rendering:auto;text-rendering:auto;enable-background:accumulate" />
    <path
       d="m 937.56458,427.51039 c -2.07069,0 -4.55564,1.12874 -4.55564,4.17008 v 8.28078 5.77168 c 0,0 0,1.51855 1.51855,1.51855 v 1.51854 c 0,0 0,1.51855 1.51854,1.51855 1.51855,0 1.51855,-1.51855 1.51855,-1.51855 v -1.51854 h 10.62981 v 1.51854 c 0,0 0,1.51855 1.51855,1.51855 1.51854,0 1.51854,-1.51855 1.51854,-1.51855 v -1.51854 c 0,0 1.51855,0 1.51855,-1.51855 v -14.05246 c 0,-3.10619 -1.87692,-4.17008 -3.94761,-4.17008 z m 0.37964,2.27782 h 9.87054 c 0.21032,0 0.37963,0.16932 0.37963,0.37963 0,0.21032 -0.16931,0.37964 -0.37963,0.37964 h -9.87054 c -0.21032,0 -0.37964,-0.16932 -0.37964,-0.37964 0,-0.21031 0.16932,-0.37963 0.37964,-0.37963 z m -1.89819,2.27782 h 13.66691 c 1.51854,0 1.51854,1.46813 1.51854,1.46813 v 4.60605 c 0,0 0,1.51854 -1.51854,1.51854 h -13.66691 c -1.51854,0 -1.51854,-1.51854 -1.51854,-1.51854 v -4.55564 c 0,0 0,-1.51854 1.51854,-1.51854 z m 0,10.62981 c 0.8387,0 1.51855,0.67985 1.51855,1.51855 0,0.83869 -0.67985,1.51854 -1.51855,1.51854 -0.83869,0 -1.51854,-0.67985 -1.51854,-1.51854 0,-0.8387 0.67985,-1.51855 1.51854,-1.51855 z m 13.66691,0 c 0.83869,0 1.51854,0.67985 1.51854,1.51855 0,0.83869 -0.67985,1.51854 -1.51854,1.51854 -0.83869,0 -1.51855,-0.67985 -1.51855,-1.51854 0,-0.8387 0.67986,-1.51855 1.51855,-1.51855 z"
       id="path8043"
       inkscape:connector-curvature="0"
       style="stroke-width:1;fill:#ffffff" />
    <path
       inkscape:connector-curvature="0"
       id="path635"
       style="fill:#ffffff;fill-rule:evenodd;stroke-width:2.99999982pt"
       d="m 668.24439,689.628 c -0.25872,0 -0.46755,0.21913 -0.46755,0.49057 v 0.17335 0.20931 h -0.0779 l 0.0779,0.0572 v 0.15862 0.42844 l -3.4053,2.43327 h -0.009 l 0.009,0.005 3.48322,2.49377 h -2.8006 c -0.51586,0 -0.9538,0.32542 -1.14394,0.79147 h -14.0903 c -0.51586,0 -0.93042,0.43497 -0.93042,0.97625 0,0 -0.59691,3.19039 -0.61872,3.24435 -0.32261,0.80618 -0.50183,1.69576 -0.50183,2.62786 v 5.53862 h 1.90914 c 0.0483,0.009 0.0904,0.036 0.14183,0.036 h 1.45563 v 0.68518 h 2.03071 c 0.0234,0.80618 0.64834,1.45538 1.4229,1.45538 0.77457,0 1.40108,-0.6492 1.4229,-1.45538 h 2.03539 c 0.0218,0.80618 0.6421,1.45538 1.41666,1.45538 0.77457,0 1.40109,-0.6492 1.42291,-1.45538 h 15.32619 c 0.0218,0.80618 0.64365,1.45538 1.41666,1.45538 0.77458,0 1.40109,-0.6492 1.4229,-1.45538 h 1.99642 c 0.0218,0.80618 0.64366,1.45538 1.41667,1.45538 0.77457,0 1.40576,-0.6492 1.42758,-1.45538 h 2.14292 v -0.68518 l 1.37927,-0.005 c 0.0514,0 0.0966,-0.0229 0.14494,-0.0311 h 1.96837 v -5.53863 c 0,-0.93209 -0.1839,-1.82167 -0.50651,-2.62786 l -0.67171,-3.24435 c 0,-0.54128 -0.41924,-0.97625 -0.93509,-0.97625 h -14.04666 c -0.19014,-0.46769 -0.63276,-0.79147 -1.14861,-0.79147 h -2.87386 l 3.48167,-2.49377 v -0.005 l -3.44738,-2.46434 v -0.39737 -0.12755 l 0.12156,-0.0883 h -0.12156 v -0.20931 -0.17334 c 0,-0.27145 -0.20884,-0.49058 -0.46755,-0.49058 z m 0.41923,1.57966 h 0.0234 l 3.31179,2.37603 -3.32581,2.38094 -3.33206,-2.38094 z m -18.30291,7.48622 h 1.13459 c 0.34598,0 0.62339,0.29107 0.62339,0.6541 v 2.69328 c 0,0.36139 -0.27741,0.6541 -0.62339,0.6541 h -1.72369 c -0.34599,0 -0.6234,-0.29271 -0.6234,-0.6541 0,0 0.60625,-2.87152 0.63742,-2.94838 0.0312,-0.0785 0.0748,-0.15044 0.13248,-0.21095 0.0561,-0.0589 0.12467,-0.10465 0.19948,-0.13736 0.0748,-0.0327 0.15585,-0.0507 0.24312,-0.0507 z m 3.66713,0 h 1.47589 c 0.34443,0 0.6234,0.29107 0.6234,0.6541 v 8.45756 c 0,0.36139 -0.27897,0.65411 -0.6234,0.65411 h -1.47589 c -0.34599,0 -0.6234,-0.29272 -0.6234,-0.65411 v -8.45756 c 0,-0.36303 0.27741,-0.6541 0.6234,-0.6541 z m 3.47699,0 h 1.47589 c 0.34598,0 0.62339,0.29107 0.62339,0.6541 v 8.45756 c 0,0.36139 -0.27741,0.65411 -0.62339,0.65411 h -1.47589 c -0.34442,0 -0.62339,-0.29272 -0.62339,-0.65411 v -8.45756 c 0,-0.36303 0.27897,-0.6541 0.62339,-0.6541 z m 3.81363,0 h 3.32737 c 0.34443,0 0.6234,0.29107 0.6234,0.6541 v 2.69328 c 0,0.36139 -0.27897,0.6541 -0.6234,0.6541 h -3.32737 c -0.34443,0 -0.6234,-0.29271 -0.6234,-0.6541 v -2.69328 c 0,-0.36303 0.27897,-0.6541 0.6234,-0.6541 z m 5.69316,0 h 3.32737 c 0.34443,0 0.6234,0.29107 0.6234,0.6541 v 2.69328 c 0,0.36139 -0.27897,0.6541 -0.6234,0.6541 h -3.32737 c -0.34443,0 -0.62339,-0.29271 -0.62339,-0.6541 v -2.69328 c 0,-0.36303 0.27896,-0.6541 0.62339,-0.6541 z m 5.61057,0 h 3.32737 c 0.34442,0 0.62339,0.29107 0.62339,0.6541 v 2.69328 c 0,0.36139 -0.27897,0.6541 -0.62339,0.6541 h -3.32737 c -0.34443,0 -0.62341,-0.29271 -0.62341,-0.6541 v -2.69328 c 0,-0.36303 0.27898,-0.6541 0.62341,-0.6541 z m 5.77576,0 h 1.47588 c 0.34599,0 0.6234,0.29107 0.6234,0.6541 v 8.45756 c 0,0.36139 -0.27741,0.65411 -0.6234,0.65411 h -1.47588 c -0.34443,0 -0.6234,-0.29272 -0.6234,-0.65411 v -8.45756 c 0,-0.36303 0.27897,-0.6541 0.6234,-0.6541 z m 3.47854,0 h 1.47589 c 0.34443,0 0.6234,0.29107 0.6234,0.6541 v 8.45756 c 0,0.36139 -0.27897,0.65411 -0.6234,0.65411 h -1.47589 c -0.34599,0 -0.6234,-0.29272 -0.6234,-0.65411 v -8.45756 c 0,-0.36303 0.27741,-0.6541 0.6234,-0.6541 z m 3.92427,0 h 1.14082 c 0.0857,0 0.16831,0.018 0.24312,0.0507 0.0748,0.0327 0.13871,0.0785 0.19481,0.13736 0.0561,0.0605 0.10442,0.13246 0.1356,0.21095 0.0327,0.0768 0.63897,2.94838 0.63897,2.94838 0,0.36139 -0.27897,0.6541 -0.62339,0.6541 h -1.72993 c -0.34442,0 -0.62339,-0.29271 -0.62339,-0.6541 v -2.69328 c 0,-0.36303 0.27897,-0.6541 0.62339,-0.6541 z" />
    <path
       style="fill:#ffffff;fill-rule:evenodd;stroke:none;stroke-width:1px;stroke-linecap:butt;stroke-linejoin:miter;stroke-opacity:1"
       d="m 642.1784,719.50614 -14.01943,6.74634 -6.70284,-13.64351 2.64337,-7.77268 4.6193,9.46555 4.96181,-14.40298 6.04821,2.06198 -4.93647,14.45718 9.64993,-4.5073 z"
       id="path4698"
       inkscape:connector-curvature="0" />
    <path
       inkscape:connector-curvature="0"
       style="fill:#591003"
       d="m 513.90969,619.4964 v 24 h 1 z"
       id="path248" />
    <path
       inkscape:connector-curvature="0"
       style="fill:#ed5f04"
       d="m 787.57969,622.8264 0.66,0.34 -0.66,-0.34 m 2,1 0.66,0.34 -0.66,-0.34 m -274.67,2.67 v 11 h 1 z"
       id="path250" />
    <path
       style="stroke-width:1;fill:#ffffff"
       inkscape:connector-curvature="0"
       id="path176"
       d="m 982.46586,450.13781 c -2.07069,0 -4.55564,1.12874 -4.55564,4.17008 v 8.28078 5.77168 c 0,0 0,1.51855 1.51855,1.51855 v 1.51854 c 0,0 0,1.51855 1.51854,1.51855 1.51855,0 1.51855,-1.51855 1.51855,-1.51855 v -1.51854 h 10.62981 v 1.51854 c 0,0 0,1.51855 1.51855,1.51855 1.51854,0 1.51854,-1.51855 1.51854,-1.51855 v -1.51854 c 0,0 1.51855,0 1.51855,-1.51855 v -14.05246 c 0,-3.10619 -1.87692,-4.17008 -3.94761,-4.17008 z m 0.37964,2.27782 h 9.87054 c 0.21032,0 0.37963,0.16932 0.37963,0.37963 0,0.21032 -0.16931,0.37964 -0.37963,0.37964 h -9.87054 c -0.21032,0 -0.37964,-0.16932 -0.37964,-0.37964 0,-0.21031 0.16932,-0.37963 0.37964,-0.37963 z m -1.89819,2.27782 h 13.66691 c 1.51854,0 1.51854,1.46813 1.51854,1.46813 v 4.60605 c 0,0 0,1.51854 -1.51854,1.51854 h -13.66691 c -1.51854,0 -1.51854,-1.51854 -1.51854,-1.51854 v -4.55564 c 0,0 0,-1.51854 1.51854,-1.51854 z m 0,10.62981 c 0.8387,0 1.51855,0.67985 1.51855,1.51855 0,0.83869 -0.67985,1.51854 -1.51855,1.51854 -0.83869,0 -1.51854,-0.67985 -1.51854,-1.51854 0,-0.8387 0.67985,-1.51855 1.51854,-1.51855 z m 13.66691,0 c 0.83869,0 1.51854,0.67985 1.51854,1.51855 0,0.83869 -0.67985,1.51854 -1.51854,1.51854 -0.83869,0 -1.51855,-0.67985 -1.51855,-1.51854 0,-0.8387 0.67986,-1.51855 1.51855,-1.51855 z" />
  </g>
</svg>
